<svg width="24" height="24" viewBox="0 0 24 24" fill="none" xmlns="http://www.w3.org/2000/svg">
<path d="M20.309 17.708C22.196 15.66 22.006 13.03 22 13V5C22 4.73478 21.8947 4.48043 21.7071 4.29289C21.5196 4.10536 21.2652 4 21 4H15C13.897 4 13 4.897 13 6V13C13 13.2652 13.1054 13.5196 13.2929 13.7071C13.4804 13.8946 13.7348 14 14 14H17.078C17.0569 14.4944 16.9092 14.9751 16.649 15.396C16.141 16.197 15.184 16.744 13.803 17.02L13 17.18V20H14C16.783 20 18.906 19.229 20.309 17.708ZM9.30201 17.708C11.19 15.66 10.999 13.03 10.993 13V5C10.993 4.73478 10.8877 4.48043 10.7001 4.29289C10.5126 4.10536 10.2582 4 9.99301 4H3.99301C2.89001 4 1.99301 4.897 1.99301 6V13C1.99301 13.2652 2.09837 13.5196 2.2859 13.7071C2.47344 13.8946 2.7278 14 2.99301 14H6.07101C6.04988 14.4944 5.90217 14.9751 5.64201 15.396C5.13401 16.197 4.17701 16.744 2.79601 17.02L1.99301 17.18V20H2.99301C5.77601 20 7.89901 19.229 9.30201 17.708Z" fill="black"/>
</svg>
